# Blender v2.78 (sub 0) OBJ File: ''
# www.blender.org
mtllib Door.mtl
o Cube
v 0.452620 1.612953 -3.019921
v 0.441238 1.611832 -3.019921
v 0.430293 1.608512 -3.019921
v 0.420207 1.603120 -3.019921
v 0.411366 1.595865 -3.019921
v 0.404110 1.587024 -3.019921
v 0.398719 1.576937 -3.019921
v 0.395399 1.565993 -3.019921
v 0.394278 1.554611 -3.019921
v 0.395399 1.543229 -3.019921
v 0.398719 1.532285 -3.019921
v 0.404110 1.522198 -3.019921
v 0.411366 1.513358 -3.019921
v 0.420207 1.506102 -3.019921
v 0.430293 1.500711 -3.019921
v 0.441238 1.497391 -3.019921
v 0.452620 1.496270 -3.019921
v 0.464001 1.497391 -3.019921
v 0.474946 1.500711 -3.019921
v 0.485032 1.506102 -3.019921
v 0.493873 1.513358 -3.019921
v 0.501129 1.522198 -3.019921
v 0.506520 1.532285 -3.019921
v 0.509840 1.543229 -3.019921
v 0.510961 1.554611 -3.019921
v 0.509840 1.565993 -3.019921
v 0.506520 1.576938 -3.019921
v 0.501129 1.587024 -3.019921
v 0.493873 1.595865 -3.019921
v 0.485032 1.603120 -3.019921
v 0.474946 1.608512 -3.019921
v 0.464001 1.611832 -3.019921
v 0.452620 1.612953 -2.953236
v 0.441238 1.611832 -2.953236
v 0.430293 1.608512 -2.953236
v 0.420207 1.603120 -2.953236
v 0.411366 1.595865 -2.953236
v 0.404110 1.587024 -2.953236
v 0.398719 1.576937 -2.953236
v 0.395399 1.565993 -2.953236
v 0.394278 1.554611 -2.953236
v 0.395399 1.543229 -2.953236
v 0.398719 1.532285 -2.953236
v 0.404110 1.522198 -2.953236
v 0.411366 1.513358 -2.953236
v 0.420207 1.506102 -2.953236
v 0.430293 1.500711 -2.953236
v 0.441238 1.497391 -2.953236
v 0.452620 1.496270 -2.953236
v 0.464001 1.497391 -2.953236
v 0.474946 1.500711 -2.953236
v 0.485032 1.506102 -2.953236
v 0.493873 1.513358 -2.953236
v 0.501129 1.522198 -2.953236
v 0.506520 1.532285 -2.953236
v 0.509840 1.543229 -2.953236
v 0.510961 1.554611 -2.953236
v 0.509840 1.565993 -2.953236
v 0.506520 1.576938 -2.953236
v 0.501129 1.587024 -2.953236
v 0.493873 1.595865 -2.953236
v 0.485032 1.603120 -2.953236
v 0.474946 1.608512 -2.953236
v 0.464001 1.611832 -2.953236
v 0.452620 1.624613 -2.919853
v 0.438963 1.623268 -2.919853
v 0.425831 1.619284 -2.919853
v 0.413729 1.612815 -2.919853
v 0.403121 1.604110 -2.919853
v 0.394415 1.593502 -2.919853
v 0.387947 1.581400 -2.919853
v 0.383963 1.568268 -2.919853
v 0.382618 1.554611 -2.919853
v 0.383963 1.540955 -2.919853
v 0.387947 1.527823 -2.919853
v 0.394415 1.515720 -2.919853
v 0.403121 1.505113 -2.919853
v 0.413729 1.496407 -2.919853
v 0.425831 1.489938 -2.919853
v 0.438963 1.485955 -2.919853
v 0.452620 1.484610 -2.919853
v 0.466276 1.485955 -2.919853
v 0.479408 1.489938 -2.919853
v 0.491510 1.496407 -2.919853
v 0.502118 1.505113 -2.919853
v 0.510824 1.515720 -2.919853
v 0.517293 1.527823 -2.919853
v 0.521276 1.540955 -2.919853
v 0.522621 1.554611 -2.919853
v 0.521276 1.568268 -2.919853
v 0.517292 1.581400 -2.919853
v 0.510824 1.593502 -2.919853
v 0.502118 1.604110 -2.919853
v 0.491510 1.612815 -2.919853
v 0.479408 1.619284 -2.919853
v 0.466276 1.623268 -2.919853
v 0.452620 1.640458 -2.877567
v 0.435872 1.638808 -2.877567
v 0.419768 1.633923 -2.877567
v 0.404926 1.625990 -2.877567
v 0.391917 1.615314 -2.877567
v 0.381241 1.602305 -2.877567
v 0.373308 1.587463 -2.877567
v 0.368423 1.571359 -2.877567
v 0.366773 1.554611 -2.877567
v 0.368423 1.537863 -2.877567
v 0.373308 1.521759 -2.877567
v 0.381241 1.506917 -2.877567
v 0.391917 1.493909 -2.877567
v 0.404926 1.483232 -2.877567
v 0.419768 1.475299 -2.877567
v 0.435872 1.470414 -2.877567
v 0.452620 1.468765 -2.877567
v 0.469367 1.470414 -2.877567
v 0.485472 1.475299 -2.877567
v 0.500313 1.483232 -2.877567
v 0.513322 1.493909 -2.877567
v 0.523998 1.506917 -2.877567
v 0.531931 1.521759 -2.877567
v 0.536817 1.537863 -2.877567
v 0.538466 1.554611 -2.877567
v 0.536816 1.571359 -2.877567
v 0.531931 1.587463 -2.877567
v 0.523998 1.602305 -2.877567
v 0.513322 1.615314 -2.877567
v 0.500313 1.625990 -2.877567
v 0.485471 1.633923 -2.877567
v 0.469367 1.638808 -2.877567
v 0.452620 1.614866 -2.823210
v 0.440864 1.613708 -2.823210
v 0.429561 1.610280 -2.823210
v 0.419144 1.604711 -2.823210
v 0.410013 1.597218 -2.823210
v 0.402519 1.588087 -2.823210
v 0.396951 1.577670 -2.823210
v 0.393522 1.566366 -2.823210
v 0.392365 1.554611 -2.823210
v 0.393522 1.542856 -2.823210
v 0.396951 1.531553 -2.823210
v 0.402519 1.521135 -2.823210
v 0.410013 1.512004 -2.823210
v 0.419144 1.504511 -2.823210
v 0.429561 1.498943 -2.823210
v 0.440864 1.495514 -2.823210
v 0.452620 1.494356 -2.823210
v 0.464375 1.495514 -2.823210
v 0.475678 1.498943 -2.823210
v 0.486096 1.504511 -2.823210
v 0.495226 1.512004 -2.823210
v 0.502720 1.521135 -2.823210
v 0.508288 1.531553 -2.823210
v 0.511717 1.542856 -2.823210
v 0.512875 1.554611 -2.823210
v 0.511717 1.566366 -2.823210
v 0.508288 1.577670 -2.823210
v 0.502720 1.588087 -2.823210
v 0.495226 1.597218 -2.823210
v 0.486095 1.604711 -2.823210
v 0.475678 1.610280 -2.823210
v 0.464375 1.613708 -2.823210
v 0.452620 1.581278 -2.802236
v 0.447417 1.580766 -2.802236
v 0.442415 1.579248 -2.802236
v 0.437804 1.576784 -2.802236
v 0.433763 1.573468 -2.802236
v 0.430447 1.569427 -2.802236
v 0.427982 1.564816 -2.802236
v 0.426465 1.559814 -2.802236
v 0.425952 1.554611 -2.802236
v 0.426465 1.549409 -2.802236
v 0.427982 1.544406 -2.802236
v 0.430447 1.539796 -2.802236
v 0.433763 1.535755 -2.802236
v 0.437804 1.532438 -2.802236
v 0.442415 1.529974 -2.802236
v 0.447417 1.528456 -2.802236
v 0.452620 1.527944 -2.802236
v 0.457822 1.528456 -2.802236
v 0.462825 1.529974 -2.802236
v 0.467435 1.532438 -2.802236
v 0.471476 1.535755 -2.802236
v 0.474792 1.539796 -2.802236
v 0.477257 1.544406 -2.802236
v 0.478774 1.549409 -2.802236
v 0.479287 1.554611 -2.802236
v 0.478774 1.559814 -2.802236
v 0.477257 1.564816 -2.802236
v 0.474792 1.569427 -2.802236
v 0.471476 1.573468 -2.802236
v 0.467435 1.576784 -2.802236
v 0.462825 1.579248 -2.802236
v 0.457822 1.580766 -2.802236
v 0.794961 -0.065253 -3.277606
v 0.794961 -0.065253 -2.985692
v -0.719302 -0.065253 -2.985692
v -0.719302 -0.065253 -3.277606
v 0.794961 3.164337 -3.277605
v 0.794960 3.164337 -2.985692
v -0.719303 3.164337 -2.985692
v -0.719302 3.164337 -3.277606
vn 0.0000 -1.0000 0.0000
vn 0.0000 1.0000 -0.0000
vn 1.0000 0.0000 0.0000
vn 0.0000 0.0000 1.0000
vn -1.0000 -0.0000 -0.0000
vn 0.0000 0.0000 -1.0000
vn -0.1420 0.7139 -0.6857
vn 0.0000 0.7279 -0.6857
vn 0.1420 0.7139 -0.6857
vn 0.2785 0.6725 -0.6857
vn 0.4044 0.6052 -0.6857
vn 0.5147 0.5147 -0.6857
vn 0.6052 0.4044 -0.6857
vn 0.6725 0.2785 -0.6857
vn 0.7139 0.1420 -0.6857
vn 0.7279 0.0000 -0.6857
vn 0.7139 -0.1420 -0.6857
vn 0.6725 -0.2785 -0.6857
vn 0.6052 -0.4044 -0.6857
vn 0.5147 -0.5147 -0.6857
vn 0.4044 -0.6052 -0.6857
vn 0.2785 -0.6725 -0.6857
vn 0.1420 -0.7139 -0.6857
vn 0.0000 -0.7279 -0.6857
vn -0.1420 -0.7139 -0.6857
vn -0.2785 -0.6725 -0.6857
vn -0.4044 -0.6052 -0.6857
vn -0.5147 -0.5147 -0.6857
vn -0.6052 -0.4044 -0.6857
vn -0.6725 -0.2785 -0.6857
vn -0.7139 -0.1420 -0.6857
vn -0.7279 0.0000 -0.6857
vn -0.7139 0.1420 -0.6857
vn -0.6725 0.2785 -0.6857
vn -0.6052 0.4044 -0.6857
vn -0.5147 0.5147 -0.6857
vn -0.4044 0.6052 -0.6857
vn -0.2785 0.6725 -0.6857
vn -0.5476 0.8195 -0.1690
vn -0.6969 0.6969 -0.1690
vn -0.6648 0.6648 -0.3406
vn -0.5224 0.7818 -0.3406
vn -0.9667 -0.1923 -0.1690
vn -0.9856 0.0000 -0.1690
vn 0.9667 -0.1923 -0.1690
vn 0.9106 -0.3771 -0.1690
vn -0.9106 -0.3771 -0.1690
vn 0.9856 0.0000 -0.1690
vn -0.8195 -0.5476 -0.1690
vn 0.9667 0.1923 -0.1690
vn -0.6969 -0.6969 -0.1690
vn 0.9106 0.3772 -0.1690
vn -0.5476 -0.8195 -0.1690
vn 0.8195 0.5476 -0.1690
vn -0.3772 -0.9106 -0.1690
vn -0.1923 0.9667 -0.1690
vn 0.0000 0.9856 -0.1690
vn 0.6969 0.6969 -0.1690
vn -0.1923 -0.9667 -0.1690
vn -0.3772 0.9106 -0.1690
vn 0.5476 0.8195 -0.1690
vn 0.0000 -0.9856 -0.1690
vn 0.3772 0.9106 -0.1690
vn 0.1923 -0.9667 -0.1690
vn 0.1923 0.9667 -0.1690
vn 0.3772 -0.9106 -0.1690
vn -0.8195 0.5476 -0.1690
vn 0.5476 -0.8195 -0.1690
vn -0.9106 0.3772 -0.1690
vn 0.6969 -0.6969 -0.1690
vn -0.9667 0.1923 -0.1690
vn 0.8195 -0.5476 -0.1690
vn -0.8686 0.3598 -0.3406
vn -0.9221 0.1834 -0.3406
vn -0.9800 0.1949 0.0398
vn -0.9231 0.3824 0.0398
vn 0.1834 0.9221 -0.3406
vn 0.3598 0.8686 -0.3406
vn 0.3598 -0.8686 -0.3406
vn 0.1834 -0.9221 -0.3406
vn -0.7818 0.5224 -0.3406
vn 0.0000 0.9402 -0.3406
vn 0.5224 -0.7818 -0.3406
vn 0.6648 -0.6648 -0.3406
vn 0.7818 -0.5224 -0.3406
vn -0.9402 0.0000 -0.3406
vn 0.8686 -0.3598 -0.3406
vn -0.9221 -0.1834 -0.3406
vn 0.9221 -0.1834 -0.3406
vn -0.8686 -0.3598 -0.3406
vn 0.9402 0.0000 -0.3406
vn -0.7818 -0.5224 -0.3406
vn 0.9221 0.1834 -0.3406
vn -0.6648 -0.6648 -0.3406
vn 0.8686 0.3598 -0.3406
vn -0.5224 -0.7818 -0.3406
vn 0.7818 0.5224 -0.3406
vn -0.3598 -0.8686 -0.3406
vn -0.1834 0.9221 -0.3406
vn 0.6648 0.6648 -0.3406
vn -0.1834 -0.9221 -0.3406
vn -0.3598 0.8686 -0.3406
vn 0.5224 0.7818 -0.3406
vn 0.0000 -0.9402 -0.3406
vn -0.9800 -0.1949 0.0398
vn -0.9231 -0.3824 0.0398
vn -0.6977 -0.2890 0.6555
vn -0.7407 -0.1473 0.6555
vn 0.8308 -0.5551 0.0398
vn 0.7065 -0.7065 0.0398
vn -0.9992 0.0000 0.0398
vn 0.9231 -0.3824 0.0398
vn 0.9800 -0.1949 0.0398
vn 0.9992 0.0000 0.0398
vn -0.8308 -0.5551 0.0398
vn 0.9800 0.1949 0.0398
vn -0.7065 -0.7065 0.0398
vn 0.9231 0.3824 0.0398
vn -0.5551 -0.8308 0.0398
vn 0.8308 0.5551 0.0398
vn -0.3824 -0.9231 0.0398
vn -0.1949 0.9800 0.0398
vn 0.0000 0.9992 0.0398
vn 0.7065 0.7065 0.0398
vn -0.1949 -0.9800 0.0398
vn -0.3824 0.9231 0.0398
vn 0.5551 0.8308 0.0398
vn 0.0000 -0.9992 0.0398
vn -0.5551 0.8308 0.0398
vn 0.3824 0.9231 0.0398
vn 0.1949 -0.9800 0.0398
vn -0.7065 0.7065 0.0398
vn 0.1949 0.9800 0.0398
vn 0.3824 -0.9231 0.0398
vn -0.8308 0.5551 0.0398
vn 0.5551 -0.8308 0.0398
vn -0.5340 -0.5340 0.6555
vn -0.4196 -0.6279 0.6555
vn -0.1618 -0.2422 0.9566
vn -0.2059 -0.2059 0.9566
vn 0.7552 0.0000 0.6555
vn 0.7407 -0.1473 0.6555
vn -0.6279 -0.4196 0.6555
vn 0.7407 0.1473 0.6555
vn 0.6977 0.2890 0.6555
vn 0.6279 0.4196 0.6555
vn -0.2890 -0.6977 0.6555
vn -0.1473 0.7407 0.6555
vn 0.0000 0.7552 0.6555
vn 0.5340 0.5340 0.6555
vn -0.1473 -0.7407 0.6555
vn -0.2890 0.6977 0.6555
vn 0.4196 0.6279 0.6555
vn 0.0000 -0.7552 0.6555
vn -0.4196 0.6279 0.6555
vn 0.2890 0.6977 0.6555
vn 0.1473 -0.7407 0.6555
vn -0.5340 0.5340 0.6555
vn 0.1473 0.7407 0.6555
vn 0.2890 -0.6977 0.6555
vn -0.6279 0.4196 0.6555
vn 0.4196 -0.6279 0.6555
vn -0.6977 0.2890 0.6555
vn 0.5340 -0.5340 0.6555
vn -0.7407 0.1473 0.6555
vn 0.6279 -0.4196 0.6555
vn -0.7552 0.0000 0.6555
vn 0.6977 -0.2890 0.6555
vn -0.0568 0.2856 0.9566
vn -0.1115 0.2691 0.9566
vn -0.1618 0.2422 0.9566
vn -0.2059 0.2059 0.9566
vn -0.2422 0.1618 0.9566
vn -0.2691 0.1115 0.9566
vn -0.2856 0.0568 0.9566
vn -0.2912 0.0000 0.9566
vn -0.2856 -0.0568 0.9566
vn -0.2691 -0.1115 0.9566
vn -0.2421 -0.1618 0.9566
vn -0.1115 -0.2691 0.9566
vn -0.0568 -0.2857 0.9566
vn 0.0000 -0.2912 0.9566
vn 0.0568 -0.2857 0.9566
vn 0.1115 -0.2691 0.9566
vn 0.1618 -0.2422 0.9566
vn 0.2059 -0.2059 0.9566
vn 0.2421 -0.1618 0.9566
vn 0.2691 -0.1115 0.9566
vn 0.2856 -0.0568 0.9566
vn 0.2912 0.0000 0.9566
vn 0.2856 0.0568 0.9566
vn 0.2691 0.1115 0.9566
vn 0.2421 0.1618 0.9566
vn 0.2059 0.2059 0.9566
vn 0.1618 0.2422 0.9566
vn 0.1115 0.2691 0.9566
vn 0.0568 0.2857 0.9566
vn 0.0000 0.2912 0.9566
usemtl Material
s off
f 193//1 194//1 195//1 196//1
f 197//2 200//2 199//2 198//2
f 193//3 197//3 198//3 194//3
f 194//4 198//4 199//4 195//4
f 195//5 199//5 200//5 196//5
f 197//6 193//6 196//6 200//6
s 1
f 2//7 1//8 32//9 31//10 30//11 29//12 28//13 27//14 26//15 25//16 24//17 23//18 22//19 21//20 20//21 19//22 18//23 17//24 16//25 15//26 14//27 13//28 12//29 11//30 10//31 9//32 8//33 7//34 6//35 5//36 4//37 3//38
f 36//39 37//40 69//41 68//42
f 9//32 10//31 42//43 41//44
f 23//18 24//17 56//45 55//46
f 10//31 11//30 43//47 42//43
f 24//17 25//16 57//48 56//45
f 11//30 12//29 44//49 43//47
f 25//16 26//15 58//50 57//48
f 12//29 13//28 45//51 44//49
f 26//15 27//14 59//52 58//50
f 13//28 14//27 46//53 45//51
f 27//14 28//13 60//54 59//52
f 14//27 15//26 47//55 46//53
f 1//8 2//7 34//56 33//57
f 28//13 29//12 61//58 60//54
f 15//26 16//25 48//59 47//55
f 2//7 3//38 35//60 34//56
f 29//12 30//11 62//61 61//58
f 16//25 17//24 49//62 48//59
f 3//38 4//37 36//39 35//60
f 30//11 31//10 63//63 62//61
f 17//24 18//23 50//64 49//62
f 4//37 5//36 37//40 36//39
f 31//10 32//9 64//65 63//63
f 18//23 19//22 51//66 50//64
f 5//36 6//35 38//67 37//40
f 32//9 1//8 33//57 64//65
f 19//22 20//21 52//68 51//66
f 6//35 7//34 39//69 38//67
f 20//21 21//20 53//70 52//68
f 7//34 8//33 40//71 39//69
f 21//20 22//19 54//72 53//70
f 8//33 9//32 41//44 40//71
f 22//19 23//18 55//46 54//72
f 71//73 72//74 104//75 103//76
f 63//63 64//65 96//77 95//78
f 50//64 51//66 83//79 82//80
f 37//40 38//67 70//81 69//41
f 64//65 33//57 65//82 96//77
f 51//66 52//68 84//83 83//79
f 38//67 39//69 71//73 70//81
f 52//68 53//70 85//84 84//83
f 39//69 40//71 72//74 71//73
f 53//70 54//72 86//85 85//84
f 40//71 41//44 73//86 72//74
f 54//72 55//46 87//87 86//85
f 41//44 42//43 74//88 73//86
f 55//46 56//45 88//89 87//87
f 42//43 43//47 75//90 74//88
f 56//45 57//48 89//91 88//89
f 43//47 44//49 76//92 75//90
f 57//48 58//50 90//93 89//91
f 44//49 45//51 77//94 76//92
f 58//50 59//52 91//95 90//93
f 45//51 46//53 78//96 77//94
f 59//52 60//54 92//97 91//95
f 46//53 47//55 79//98 78//96
f 33//57 34//56 66//99 65//82
f 60//54 61//58 93//100 92//97
f 47//55 48//59 80//101 79//98
f 34//56 35//60 67//102 66//99
f 61//58 62//61 94//103 93//100
f 48//59 49//62 81//104 80//101
f 35//60 36//39 68//42 67//102
f 62//61 63//63 95//78 94//103
f 49//62 50//64 82//80 81//104
f 106//105 107//106 139//107 138//108
f 85//84 86//85 118//109 117//110
f 72//74 73//86 105//111 104//75
f 86//85 87//87 119//112 118//109
f 73//86 74//88 106//105 105//111
f 87//87 88//89 120//113 119//112
f 74//88 75//90 107//106 106//105
f 88//89 89//91 121//114 120//113
f 75//90 76//92 108//115 107//106
f 89//91 90//93 122//116 121//114
f 76//92 77//94 109//117 108//115
f 90//93 91//95 123//118 122//116
f 77//94 78//96 110//119 109//117
f 91//95 92//97 124//120 123//118
f 78//96 79//98 111//121 110//119
f 65//82 66//99 98//122 97//123
f 92//97 93//100 125//124 124//120
f 79//98 80//101 112//125 111//121
f 66//99 67//102 99//126 98//122
f 93//100 94//103 126//127 125//124
f 80//101 81//104 113//128 112//125
f 67//102 68//42 100//129 99//126
f 94//103 95//78 127//130 126//127
f 81//104 82//80 114//131 113//128
f 68//42 69//41 101//132 100//129
f 95//78 96//77 128//133 127//130
f 82//80 83//79 115//134 114//131
f 69//41 70//81 102//135 101//132
f 96//77 65//82 97//123 128//133
f 83//79 84//83 116//136 115//134
f 70//81 71//73 103//76 102//135
f 84//83 85//84 117//110 116//136
f 141//137 142//138 174//139 173//140
f 120//113 121//114 153//141 152//142
f 107//106 108//115 140//143 139//107
f 121//114 122//116 154//144 153//141
f 108//115 109//117 141//137 140//143
f 122//116 123//118 155//145 154//144
f 109//117 110//119 142//138 141//137
f 123//118 124//120 156//146 155//145
f 110//119 111//121 143//147 142//138
f 97//123 98//122 130//148 129//149
f 124//120 125//124 157//150 156//146
f 111//121 112//125 144//151 143//147
f 98//122 99//126 131//152 130//148
f 125//124 126//127 158//153 157//150
f 112//125 113//128 145//154 144//151
f 99//126 100//129 132//155 131//152
f 126//127 127//130 159//156 158//153
f 113//128 114//131 146//157 145//154
f 100//129 101//132 133//158 132//155
f 127//130 128//133 160//159 159//156
f 114//131 115//134 147//160 146//157
f 101//132 102//135 134//161 133//158
f 128//133 97//123 129//149 160//159
f 115//134 116//136 148//162 147//160
f 102//135 103//76 135//163 134//161
f 116//136 117//110 149//164 148//162
f 103//76 104//75 136//165 135//163
f 117//110 118//109 150//166 149//164
f 104//75 105//111 137//167 136//165
f 118//109 119//112 151//168 150//166
f 105//111 106//105 138//108 137//167
f 119//112 120//113 152//142 151//168
f 162//169 163//170 164//171 165//172 166//173 167//174 168//175 169//176 170//177 171//178 172//179 173//140 174//139 175//180 176//181 177//182 178//183 179//184 180//185 181//186 182//187 183//188 184//189 185//190 186//191 187//192 188//193 189//194 190//195 191//196 192//197 161//198
f 155//145 156//146 188//193 187//192
f 142//138 143//147 175//180 174//139
f 129//149 130//148 162//169 161//198
f 156//146 157//150 189//194 188//193
f 143//147 144//151 176//181 175//180
f 130//148 131//152 163//170 162//169
f 157//150 158//153 190//195 189//194
f 144//151 145//154 177//182 176//181
f 131//152 132//155 164//171 163//170
f 158//153 159//156 191//196 190//195
f 145//154 146//157 178//183 177//182
f 132//155 133//158 165//172 164//171
f 159//156 160//159 192//197 191//196
f 146//157 147//160 179//184 178//183
f 133//158 134//161 166//173 165//172
f 160//159 129//149 161//198 192//197
f 147//160 148//162 180//185 179//184
f 134//161 135//163 167//174 166//173
f 148//162 149//164 181//186 180//185
f 135//163 136//165 168//175 167//174
f 149//164 150//166 182//187 181//186
f 136//165 137//167 169//176 168//175
f 150//166 151//168 183//188 182//187
f 137//167 138//108 170//177 169//176
f 151//168 152//142 184//189 183//188
f 138//108 139//107 171//178 170//177
f 152//142 153//141 185//190 184//189
f 139//107 140//143 172//179 171//178
f 153//141 154//144 186//191 185//190
f 140//143 141//137 173//140 172//179
f 154//144 155//145 187//192 186//191
