# Blender v2.78 (sub 0) OBJ File: ''
# www.blender.org
mtllib room.mtl
o Cube.001_Cube.007
v -2.504831 -0.078725 3.634150
v -2.504831 0.078725 3.634150
v -2.504831 -0.078725 -3.273664
v -2.504831 0.078725 -3.273664
v 2.504831 -0.078725 3.634150
v 2.504831 0.078725 3.634150
v 2.504831 -0.078725 -3.273664
v 2.504831 0.078725 -3.273664
v -2.210145 -0.078725 -3.273664
v -2.210145 0.078725 -3.273664
v -2.210145 -0.078725 3.634150
v -2.210145 0.078725 3.634150
v 2.292002 0.078725 -3.273664
v 2.292002 -0.078725 3.634150
v 2.292002 -0.078725 -3.273664
v 2.292002 0.078725 3.634150
v -2.504831 -0.078725 3.323134
v -2.504831 0.078725 3.323134
v 2.504831 -0.078725 3.323134
v 2.504831 0.078725 3.323134
v -2.210145 0.078725 3.323134
v -2.210145 -0.078725 3.323134
v 2.292002 0.078725 3.323134
v 2.292002 -0.078725 3.323134
v -2.504831 0.078725 -2.963419
v 2.504831 -0.078725 -2.963419
v -2.504831 -0.078725 -2.963419
v 2.504831 0.078725 -2.963419
v -2.210145 0.078725 -2.963419
v -2.210145 -0.078725 -2.963419
v 2.292002 0.078725 -2.963419
v 2.292002 -0.078725 -2.963419
v 0.791286 -0.078725 -3.273664
v -0.709429 -0.078725 -3.273664
v 0.791286 0.078725 3.634150
v -0.709429 0.078725 3.634150
v -0.709429 0.078725 -3.273664
v 0.791287 0.078725 -3.273664
v -0.709429 -0.078725 3.634150
v 0.791287 -0.078725 3.634150
v 0.791286 -0.078725 3.323134
v -0.709429 -0.078725 3.323134
v -0.709429 0.078725 3.323134
v 0.791287 0.078725 3.323134
v -0.709429 0.078725 -2.963419
v 0.791287 0.078725 -2.963419
v 0.791286 -0.078725 -2.963419
v -0.709429 -0.078725 -2.963419
v -2.504831 3.004859 -2.963419
v -2.504831 3.004859 -3.273664
v 2.292002 3.004859 -3.273664
v 2.504831 3.004859 -3.273664
v 2.504831 3.004859 3.323134
v 2.504831 3.004859 3.634150
v -2.210145 3.004859 3.634150
v -2.504831 3.004859 3.634150
v -2.210145 3.004859 -3.273664
v -0.709429 3.004859 3.634150
v -2.210145 3.004859 3.323134
v 0.791287 3.004859 -3.273664
v 2.292002 3.004859 3.634150
v 2.292002 3.004859 3.323134
v -2.504831 3.004859 3.323134
v 2.504831 3.004859 -2.963419
v -2.210145 3.004859 -2.963419
v 2.292002 3.004859 -2.963419
v 0.791287 3.004859 3.323134
v 0.791287 3.004859 -2.963419
v 0.791286 3.004859 3.634150
v -0.709429 3.004859 -3.273664
v -0.709429 3.004859 3.323134
v -0.709429 3.004859 -2.963419
v -2.504831 3.216898 -2.963419
v -2.504831 3.216898 -3.273664
v 2.292002 3.216898 -3.273664
v 2.504831 3.216898 -3.273664
v 2.504831 3.216898 3.323134
v 2.504831 3.216898 3.634150
v -2.210145 3.216898 3.634150
v -2.504831 3.216898 3.634150
v -2.210145 3.216898 -3.273664
v -0.709429 3.216898 3.634150
v -2.210145 3.216898 3.323134
v 0.791287 3.216898 -3.273664
v 2.292002 3.216898 3.634150
v 2.292002 3.216898 3.323134
v -2.504831 3.216898 3.323134
v 2.504831 3.216898 -2.963419
v -2.210145 3.216898 -2.963419
v 2.292002 3.216898 -2.963419
v 0.791287 3.216898 3.323134
v 0.791287 3.216898 -2.963419
v 0.791286 3.216898 3.634150
v -0.709429 3.216898 -3.273664
v -0.709429 3.216898 3.323134
v -0.709429 3.216898 -2.963419
vn -1.0000 0.0000 0.0000
vn 0.0000 0.0000 -1.0000
vn 1.0000 0.0000 0.0000
vn 0.0000 0.0000 1.0000
vn 0.0000 -1.0000 0.0000
vn 0.0000 1.0000 0.0000
usemtl None
s off
f 27//1 25//1 4//1 3//1
f 15//2 13//2 8//2 7//2
f 19//3 20//3 6//3 5//3
f 11//4 12//4 2//4 1//4
f 24//5 19//5 5//5 14//5
f 37//2 10//2 57//2 70//2
f 31//1 23//1 62//1 66//1
f 17//5 22//5 11//5 1//5
f 39//4 36//4 12//4 11//4
f 3//2 4//2 10//2 9//2
f 5//4 6//4 16//4 14//4
f 44//2 43//2 71//2 67//2
f 41//5 24//5 14//5 40//5
f 33//2 38//2 13//2 15//2
f 47//5 32//5 24//5 41//5
f 38//1 46//1 68//1 60//1
f 27//5 30//5 22//5 17//5
f 45//6 29//6 21//6 43//6
f 36//4 35//4 69//4 58//4
f 32//5 26//5 19//5 24//5
f 26//3 28//3 20//3 19//3
f 1//1 2//1 18//1 17//1
f 7//3 8//3 28//3 26//3
f 15//5 7//5 26//5 32//5
f 2//4 12//4 55//4 56//4
f 43//2 21//2 59//2 71//2
f 3//5 9//5 30//5 27//5
f 46//4 31//4 66//4 68//4
f 33//5 15//5 32//5 47//5
f 17//1 18//1 25//1 27//1
f 9//5 34//5 48//5 30//5
f 34//5 33//5 47//5 48//5
f 35//4 16//4 61//4 69//4
f 38//6 37//6 45//6 46//6
f 31//6 46//6 44//6 23//6
f 46//6 45//6 43//6 44//6
f 30//5 48//5 42//5 22//5
f 48//5 47//5 41//5 42//5
f 9//2 10//2 37//2 34//2
f 34//2 37//2 38//2 33//2
f 22//5 42//5 39//5 11//5
f 42//5 41//5 40//5 39//5
f 14//4 16//4 35//4 40//4
f 40//4 35//4 36//4 39//4
f 28//3 8//3 52//3 64//3
f 21//3 29//3 65//3 59//3
f 54//3 53//3 77//3 78//3
f 69//4 61//4 85//4 93//4
f 72//3 70//3 94//3 96//3
f 52//2 51//2 75//2 76//2
f 61//4 54//4 78//4 85//4
f 60//1 68//1 92//1 84//1
f 62//2 67//2 91//2 86//2
f 50//1 49//1 73//1 74//1
f 68//4 66//4 90//4 92//4
f 51//2 60//2 84//2 75//2
f 65//4 72//4 96//4 89//4
f 45//3 37//3 70//3 72//3
f 8//2 13//2 51//2 52//2
f 13//2 38//2 60//2 51//2
f 29//4 45//4 72//4 65//4
f 10//2 4//2 50//2 57//2
f 18//1 2//1 56//1 63//1
f 25//1 18//1 63//1 49//1
f 12//4 36//4 58//4 55//4
f 6//3 20//3 53//3 54//3
f 16//4 6//4 54//4 61//4
f 20//3 28//3 64//3 53//3
f 4//1 25//1 49//1 50//1
f 23//2 44//2 67//2 62//2
f 83//6 87//6 80//6 79//6
f 95//6 83//6 79//6 82//6
f 77//6 86//6 85//6 78//6
f 88//6 90//6 86//6 77//6
f 89//6 73//6 87//6 83//6
f 81//6 74//6 73//6 89//6
f 94//6 81//6 89//6 96//6
f 76//6 75//6 90//6 88//6
f 75//6 84//6 92//6 90//6
f 86//6 91//6 93//6 85//6
f 91//6 95//6 82//6 93//6
f 49//1 63//1 87//1 73//1
f 63//1 56//1 80//1 87//1
f 58//4 69//4 93//4 82//4
f 56//4 55//4 79//4 80//4
f 64//3 52//3 76//3 88//3
f 53//3 64//3 88//3 77//3
f 70//2 57//2 81//2 94//2
f 57//2 50//2 74//2 81//2
f 59//3 65//3 89//3 83//3
f 71//2 59//2 83//2 95//2
f 55//4 58//4 82//4 79//4
f 66//1 62//1 86//1 90//1
f 67//2 71//2 95//2 91//2
f 72//5 68//5 66//5 62//5 67//5 71//5 59//5 65//5
f 96//6 89//6 83//6 95//6 91//6 86//6 90//6 92//6
f 70//5 60//5 68//5 72//5
f 94//6 96//6 92//6 84//6
f 60//2 70//2 94//2 84//2
