# Blender v2.78 (sub 0) OBJ File: ''
# www.blender.org
mtllib Test.mtl
o Cube
v 1.000000 -1.000000 -1.000000
v 1.000000 -1.000000 1.000000
v -1.000000 -1.000000 1.000000
v -1.000000 -1.000000 -1.000000
v -1.000000 1.000000 1.000000
v -1.000000 1.000000 -1.000000
v -0.713066 1.000000 -1.000000
v 1.000000 -0.713066 -1.000000
v -0.057504 0.869601 -1.000000
v 0.498255 0.498254 -1.000000
v 0.869601 -0.057504 -1.000000
v 1.000000 -0.713066 1.000000
v -0.713067 1.000000 1.000000
v 0.869600 -0.057504 1.000000
v 0.498254 0.498254 1.000000
v -0.057505 0.869601 1.000000
vn 0.0000 -1.0000 0.0000
vn -0.0000 -0.0000 1.0000
vn 0.0000 1.0000 0.0000
vn -1.0000 -0.0000 -0.0000
vn 1.0000 0.0000 0.0000
vn 0.1951 0.9808 0.0000
vn 0.5556 0.8315 0.0000
vn 0.8315 0.5556 0.0000
vn 0.9808 0.1951 0.0000
vn 0.0000 0.0000 -1.0000
usemtl Material
s off
f 1//1 2//1 3//1 4//1
f 2//2 12//2 14//2 15//2 16//2 13//2 5//2 3//2
f 7//3 6//3 5//3 13//3
f 3//4 5//4 6//4 4//4
f 1//5 8//5 12//5 2//5
f 7//6 13//6 16//6 9//6
f 9//7 16//7 15//7 10//7
f 10//8 15//8 14//8 11//8
f 11//9 14//9 12//9 8//9
f 7//10 9//10 10//10 11//10 8//10 1//10 4//10 6//10
