# Blender v2.78 (sub 0) OBJ File: 'The spook.blend'
# www.blender.org
mtllib The spook.mtl
o Cube
v 0.611232 1.970353 -0.203324
v 0.611232 1.970353 0.203325
v -0.756452 1.394360 -0.203324
v -0.511581 2.737385 -0.203325
v -0.140774 1.970353 -0.203324
v -0.693075 1.569574 -0.203324
v -0.634016 1.785119 -0.203325
v -0.583302 2.026307 -0.203325
v -0.544387 2.276700 -0.203325
v -0.519925 2.519236 -0.203325
v -0.511581 2.737385 0.203324
v -0.756452 1.394360 0.203324
v -0.140774 1.970353 0.203324
v -0.519925 2.519236 0.203324
v -0.544388 2.276700 0.203324
v -0.583302 2.026307 0.203324
v -0.634017 1.785119 0.203324
v -0.693075 1.569574 0.203324
v -0.511581 2.737385 -0.203325
v 0.004555 3.131648 -0.203325
v -0.493994 2.839427 -0.203325
v -0.442432 2.934516 -0.203325
v -0.360408 3.016171 -0.203325
v -0.253513 3.078827 -0.203325
v -0.129031 3.118214 -0.203325
v 0.095096 3.131648 -0.203325
v 0.611232 2.063997 -0.203324
v 0.228682 3.095269 -0.203325
v 0.353164 2.988610 -0.203325
v 0.460059 2.818940 -0.203324
v 0.542083 2.597823 -0.203324
v 0.593645 2.340326 -0.203324
v 0.611232 2.063997 0.203325
v 0.095096 3.131648 0.203324
v 0.593645 2.340326 0.203324
v 0.542082 2.597823 0.203324
v 0.460059 2.818940 0.203324
v 0.353164 2.988610 0.203324
v 0.228681 3.095269 0.203324
v 0.004554 3.131648 0.203324
v -0.511581 2.737385 0.203324
v -0.129031 3.118214 0.203324
v -0.253513 3.078827 0.203324
v -0.360409 3.016171 0.203324
v -0.442432 2.934516 0.203324
v -0.493994 2.839427 0.203324
v 0.387260 0.895654 0.203325
v 0.387260 0.895654 -0.203324
v -0.541941 0.895654 0.203325
v -0.541941 0.895654 -0.203324
v -0.541941 0.895654 0.203325
v -0.541941 0.895654 -0.203324
v 0.154960 0.895654 0.203325
v 0.154960 0.895654 -0.203324
v 0.154960 0.895654 0.203325
v 0.154960 0.895654 -0.203324
v -0.077340 0.895654 0.203325
v -0.077340 0.895654 -0.203324
v -0.077340 0.895654 0.203325
v -0.077340 0.895654 -0.203324
v -0.309641 0.895654 0.203325
v -0.309641 0.895654 -0.203324
v -0.077340 0.895654 0.203325
v -0.077340 0.895654 -0.203324
v -0.309641 0.895654 0.203325
v -0.309641 0.895654 -0.203324
v 0.154960 0.895654 0.203325
v 0.154960 0.895654 -0.203324
v 0.387260 0.895654 0.203325
v 0.387260 0.895654 -0.203324
v -0.980678 0.866928 -0.203324
v -0.980678 0.866928 0.203325
v -0.953251 0.846824 0.203325
v -0.953251 0.846824 -0.203324
v 0.130068 0.867640 0.203325
v 0.130068 0.867640 -0.203324
v -0.541941 0.895654 0.203325
v -0.541941 0.895654 -0.203324
v -0.517049 0.867640 0.203325
v -0.517049 0.867640 -0.203324
v -0.052449 0.867640 0.203325
v -0.052449 0.867640 -0.203324
v 0.566270 0.846824 0.203325
v 0.566270 0.846824 -0.203324
v 0.471364 0.834005 0.203325
v 0.471364 0.834005 -0.203324
v -0.024050 0.846824 0.203325
v -0.024050 0.846824 -0.203324
v 0.503410 0.829677 0.203325
v 0.503410 0.829677 -0.203324
v -0.457836 0.834005 0.203325
v -0.457836 0.834005 -0.203324
v -0.858345 0.834005 0.203325
v -0.858345 0.834005 -0.203324
v -0.488651 0.846824 0.203325
v -0.488651 0.846824 -0.203324
v -0.425791 0.829677 0.203325
v -0.425791 0.829677 -0.203324
v 0.101670 0.846824 0.203325
v 0.101670 0.846824 -0.203324
v -0.720951 0.969301 0.203325
v -0.720951 0.969301 -0.203324
v -0.690137 0.988635 0.203325
v -0.690137 0.988635 -0.203324
v -0.658091 0.995163 0.203325
v -0.658091 0.995163 -0.203324
v -0.922437 0.834005 0.203325
v -0.922437 0.834005 -0.203324
v -0.890391 0.829676 0.203325
v -0.890391 0.829676 -0.203324
v -0.827531 0.846824 0.203325
v -0.827531 0.846824 -0.203324
v -0.799132 0.867640 0.203325
v -0.799132 0.867640 -0.203324
v 0.038810 0.829676 0.203325
v 0.038810 0.829677 -0.203324
v 0.535456 0.834005 0.203325
v 0.535456 0.834005 -0.203324
v 0.070855 0.834005 0.203325
v 0.070855 0.834005 -0.203324
v 0.006764 0.834005 0.203325
v 0.006764 0.834005 -0.203324
v -0.334532 0.867640 0.203325
v -0.334532 0.867640 -0.203324
v -0.362931 0.846824 0.203325
v -0.362931 0.846824 -0.203324
v -0.393745 0.834005 0.203325
v -0.393745 0.834005 -0.203324
v 0.412151 0.867640 0.203325
v 0.412152 0.867640 -0.203324
v -0.749349 0.937906 0.203325
v -0.749349 0.937906 -0.203324
v 0.440550 0.846824 0.203325
v 0.440550 0.846824 -0.203324
v -0.774241 0.895654 0.203325
v -0.774241 0.895654 -0.203324
v -0.774241 0.895654 0.203325
v -0.774241 0.895654 -0.203324
v -0.309641 0.895654 0.203325
v -0.309641 0.895654 -0.203324
v 0.271110 0.995163 0.203325
v 0.271110 0.995163 -0.203324
v 0.239064 0.988635 0.203325
v 0.239064 0.988635 -0.203324
v -0.102232 0.937906 0.203325
v -0.102232 0.937906 -0.203324
v 0.303156 0.988635 0.203325
v 0.303156 0.988635 -0.203324
v -0.130631 0.969302 0.203325
v -0.130630 0.969302 -0.203324
v -0.193491 0.995163 0.203325
v -0.193490 0.995163 -0.203324
v 0.387260 0.895654 0.203325
v 0.387260 0.895654 -0.203324
v -0.161445 0.988635 0.203325
v -0.161445 0.988635 -0.203324
v -0.225536 0.988635 0.203325
v -0.225536 0.988635 -0.203324
v -0.774241 0.895654 0.203325
v -0.774241 0.895654 -0.203324
v 0.594669 0.867640 0.203325
v 0.594669 0.867640 -0.203324
v 0.333970 0.969302 0.203325
v 0.333970 0.969302 -0.203324
v 0.362368 0.937906 0.203325
v 0.362369 0.937906 -0.203324
v 0.208250 0.969302 0.203325
v 0.208250 0.969302 -0.203324
v 0.179851 0.937906 0.203325
v 0.179851 0.937906 -0.203324
v -0.284749 0.937906 0.203325
v -0.284749 0.937906 -0.203324
v -0.256350 0.969302 0.203325
v -0.256350 0.969301 -0.203324
v 0.611232 0.886281 0.203325
v 0.611232 0.886281 -0.203324
v -0.566832 0.937906 0.203325
v -0.566832 0.937906 -0.203324
v -0.595231 0.969301 0.203325
v -0.595231 0.969301 -0.203324
v -0.626045 0.988635 0.203325
v -0.626045 0.988635 -0.203324
v 0.138181 2.831870 -0.203325
v 0.138181 2.831870 0.203324
v 0.224728 2.831870 -0.203325
v 0.224728 2.831870 0.203324
v -0.262123 2.699855 -0.203325
v -0.262123 2.699855 0.203324
v 0.041418 2.598387 -0.203325
v 0.041418 2.598387 0.203324
v 0.068162 2.742687 -0.203325
v 0.068162 2.742687 0.203324
v -0.175576 2.699855 -0.203325
v -0.175576 2.699855 0.203324
v 0.068162 2.454086 -0.203324
v 0.068162 2.454086 0.203324
v 0.138181 2.364903 0.203325
v 0.138181 2.364903 -0.203324
v 0.294747 2.454086 -0.203325
v 0.294747 2.454086 0.203324
v 0.224728 2.364903 -0.203324
v 0.224728 2.364903 0.203324
v -0.105557 2.322071 0.203324
v -0.105557 2.322071 -0.203324
v -0.345408 2.393647 -0.203325
v -0.358886 2.466372 0.203324
v -0.358886 2.466371 -0.203324
v -0.332142 2.610672 0.203324
v -0.332142 2.610672 -0.203325
v -0.332142 2.322071 0.203324
v -0.345408 2.393646 0.203324
v -0.332142 2.322071 -0.203324
v 0.321491 2.598387 -0.203325
v 0.321491 2.598387 0.203324
v 0.294747 2.742687 -0.203325
v 0.294747 2.742687 0.203324
v -0.262123 2.232888 0.203324
v -0.262123 2.232888 -0.203324
v -0.105558 2.610672 -0.203325
v -0.105558 2.610672 0.203324
v -0.096232 2.560356 0.203324
v -0.101754 2.590152 -0.203325
v -0.078813 2.466372 0.203324
v -0.078813 2.466372 -0.203324
v -0.175576 2.232888 0.203324
v -0.175576 2.232888 -0.203324
v -0.276615 2.251347 0.203324
v -0.276614 2.251345 -0.203325
vn 0.0000 0.0000 1.0000
vn -0.9203 0.3912 -0.0000
vn 1.0000 0.0000 0.0000
vn 0.0000 -0.0000 -1.0000
vn -0.9404 0.3401 -0.0000
vn -0.9645 0.2643 -0.0000
vn -0.9786 0.2058 -0.0000
vn -0.9881 0.1536 -0.0000
vn -0.9950 0.1004 -0.0000
vn -0.9993 0.0382 -0.0000
vn 0.0000 1.0000 0.0000
vn -0.9855 0.1698 -0.0000
vn -0.8791 0.4767 -0.0000
vn -0.7055 0.7087 -0.0000
vn -0.5057 0.8627 -0.0000
vn -0.3017 0.9534 -0.0000
vn -0.1001 0.9950 -0.0000
vn 0.2628 0.9649 0.0000
vn 0.6506 0.7594 0.0000
vn 0.8461 0.5330 0.0000
vn 0.9376 0.3478 0.0000
vn 0.9805 0.1963 0.0000
vn 0.9980 0.0635 0.0000
vn -0.7865 -0.6175 0.0000
vn -0.9833 -0.1822 0.0000
vn 0.0000 -1.0000 -0.0000
vn -0.7865 0.6175 -0.0000
vn 0.9833 -0.1822 0.0000
vn 0.7865 -0.6175 0.0000
vn 0.9833 0.1822 0.0000
vn -0.9833 0.1822 -0.0000
vn 0.7865 0.6175 -0.0000
vn 0.7475 -0.6642 0.0000
vn 0.5912 -0.8065 0.0000
vn 0.3841 -0.9233 0.0000
vn 0.1338 -0.9910 0.0000
vn -0.1338 -0.9910 0.0000
vn -0.3841 -0.9233 0.0000
vn -0.5912 -0.8065 -0.0000
vn -0.7475 -0.6642 -0.0000
vn -0.8616 -0.5076 -0.0000
vn -0.7416 -0.6708 -0.0000
vn -0.5315 -0.8471 0.0000
vn -0.1996 -0.9799 -0.0000
vn 0.1996 -0.9799 0.0000
vn 0.5315 -0.8471 0.0000
vn -0.7416 0.6708 -0.0000
vn -0.8616 0.5076 0.0000
vn 0.7416 -0.6708 0.0000
vn 0.8616 -0.5076 0.0000
vn 0.1339 -0.9910 0.0000
vn -0.1339 -0.9910 0.0000
usemtl Material
s off
f 19//1 4//1 11//1 41//1
f 3//2 71//2 72//2 12//2
f 2//1 33//1 35//1 36//1 37//1 214//1 200//1 202//1 197//1 196//1 190//1 221//1 223//1 203//1 225//1 217//1 227//1 13//1
f 1//3 27//3 33//3 2//3
f 3//4 6//4 5//4
f 6//4 7//4 5//4
f 7//4 8//4 5//4
f 8//4 9//4 5//4
f 9//4 10//4 5//4
f 10//4 4//4 205//4 212//4 228//4 5//4
f 11//1 14//1 13//1 227//1 210//1 211//1
f 14//1 15//1 13//1
f 15//1 16//1 13//1
f 16//1 17//1 13//1
f 17//1 18//1 13//1
f 18//1 12//1 13//1
f 3//5 12//5 18//5 6//5
f 6//6 18//6 17//6 7//6
f 7//7 17//7 16//7 8//7
f 8//8 16//8 15//8 9//8
f 9//9 15//9 14//9 10//9
f 10//10 14//10 11//10 4//10
f 20//11 40//11 34//11 26//11
f 19//12 41//12 46//12 21//12
f 21//13 46//13 45//13 22//13
f 22//14 45//14 44//14 23//14
f 23//15 44//15 43//15 24//15
f 24//16 43//16 42//16 25//16
f 25//17 42//17 40//17 20//17
f 26//18 34//18 39//18 28//18
f 28//19 39//19 38//19 29//19
f 29//20 38//20 37//20 30//20
f 30//21 37//21 36//21 31//21
f 31//22 36//22 35//22 32//22
f 32//23 35//23 33//23 27//23
f 5//4 228//4 218//4 226//4 204//4 224//4 222//4 189//4 195//4 198//4 201//4 199//4 213//4 30//4 31//4 32//4 27//4 1//4
f 176//4 162//4 84//4 118//4 90//4 86//4 134//4 130//4 48//4 70//4 154//4 166//4 164//4 148//4 142//4 144//4 168//4 170//4 56//4 54//4 68//4 76//4 100//4 120//4 116//4 122//4 88//4 82//4 58//4 60//4 64//4 146//4 150//4 156//4 152//4 158//4 174//4 172//4 140//4 62//4 66//4 124//4 126//4 128//4 98//4 92//4 96//4 80//4 78//4 52//4 50//4 178//4 180//4 182//4 106//4 104//4 102//4 132//4 160//4 136//4 138//4 114//4 112//4 94//4 110//4 108//4 74//4 71//4 3//4 5//4 1//4
f 175//3 176//3 1//3 2//3
f 72//1 73//1 107//1 109//1 93//1 111//1 113//1 137//1 135//1 159//1 131//1 101//1 103//1 105//1 181//1 179//1 177//1 49//1 51//1 77//1 79//1 95//1 91//1 97//1 127//1 125//1 123//1 65//1 61//1 139//1 171//1 173//1 157//1 151//1 155//1 149//1 145//1 63//1 59//1 57//1 81//1 87//1 121//1 115//1 119//1 99//1 75//1 67//1 53//1 55//1 169//1 167//1 143//1 141//1 147//1 163//1 165//1 153//1 69//1 47//1 129//1 133//1 85//1 89//1 117//1 83//1 161//1 175//1 2//1 13//1 12//1
f 186//24 185//24 215//24 216//24
f 216//25 215//25 213//25 214//25
f 202//11 201//11 198//11 197//11
f 184//26 183//26 185//26 186//26
f 200//27 199//27 201//27 202//27
f 220//25 219//25 222//25 224//25 223//25 221//25
f 190//28 189//28 191//28 192//28
f 192//29 191//29 183//29 184//29
f 203//27 204//27 226//27 225//27
f 225//11 226//11 218//11 217//11
f 206//28 207//28 209//28 208//28
f 30//4 213//4 215//4 185//4 183//4 191//4 189//4 222//4 219//4 193//4 187//4 209//4 207//4 205//4 4//4 19//4 21//4 22//4 23//4 24//4 25//4 20//4 26//4 28//4 29//4
f 188//26 187//26 193//26 194//26
f 196//30 195//30 189//30 190//30
f 194//24 193//24 219//24 220//24
f 208//29 209//29 187//29 188//29
f 223//31 224//31 204//31 203//31
f 37//1 38//1 39//1 34//1 40//1 42//1 43//1 44//1 45//1 46//1 41//1 11//1 211//1 206//1 208//1 188//1 194//1 220//1 221//1 190//1 192//1 184//1 186//1 216//1 214//1
f 217//32 218//32 228//32 212//32 210//32 227//32
f 210//30 212//30 205//30 207//30 206//30 211//30
f 197//32 198//32 195//32 196//32
f 214//31 213//31 199//31 200//31
f 175//33 161//33 162//33 176//33
f 83//34 84//34 162//34 161//34
f 118//35 84//35 83//35 117//35
f 89//36 90//36 118//36 117//36
f 85//37 86//37 90//37 89//37
f 133//38 134//38 86//38 85//38
f 129//39 130//39 134//39 133//39
f 47//40 48//40 130//40 129//40
f 165//41 166//41 154//41 153//41
f 163//42 164//42 166//42 165//42
f 147//43 148//43 164//43 163//43
f 141//44 142//44 148//44 147//44
f 144//45 142//45 141//45 143//45
f 167//46 168//46 144//46 143//46
f 169//47 167//47 168//47 170//47
f 55//48 169//48 170//48 56//48
f 75//33 76//33 68//33 67//33
f 99//34 100//34 76//34 75//34
f 119//35 120//35 100//35 99//35
f 115//36 116//36 120//36 119//36
f 121//37 122//37 116//37 115//37
f 87//38 88//38 122//38 121//38
f 81//39 82//39 88//39 87//39
f 57//40 58//40 82//40 81//40
f 146//41 64//41 63//41 145//41
f 149//42 150//42 146//42 145//42
f 155//43 156//43 150//43 149//43
f 151//44 152//44 156//44 155//44
f 158//45 152//45 151//45 157//45
f 173//46 174//46 158//46 157//46
f 171//49 172//49 174//49 173//49
f 139//50 140//50 172//50 171//50
f 123//33 124//33 66//33 65//33
f 125//34 126//34 124//34 123//34
f 127//35 128//35 126//35 125//35
f 97//36 98//36 128//36 127//36
f 91//37 92//37 98//37 97//37
f 96//38 92//38 91//38 95//38
f 79//39 80//39 96//39 95//39
f 77//40 78//40 80//40 79//40
f 177//41 178//41 50//41 49//41
f 179//42 180//42 178//42 177//42
f 181//43 182//43 180//43 179//43
f 105//44 106//44 182//44 181//44
f 104//45 106//45 105//45 103//45
f 101//46 102//46 104//46 103//46
f 131//49 132//49 102//49 101//49
f 159//50 160//50 132//50 131//50
f 113//33 114//33 138//33 137//33
f 111//34 112//34 114//34 113//34
f 93//35 94//35 112//35 111//35
f 110//51 94//51 93//51 109//51
f 107//52 108//52 110//52 109//52
f 73//38 74//38 108//38 107//38
f 71//39 74//39 73//39 72//39
