# Blender v2.78 (sub 0) OBJ File: 'The spook.blend'
# www.blender.org
mtllib The spook.mtl
o Cube
v 0.362170 -2.033771 1.088751
v -0.362170 -2.033771 1.088751
v 0.362170 -3.059753 -1.347423
v 0.362170 -0.667502 -0.911249
v 0.362170 -2.033771 -0.250752
v 0.362170 -2.747655 -1.234533
v 0.362170 -2.363717 -1.129336
v 0.362170 -1.934103 -1.039001
v 0.362170 -1.488092 -0.969685
v 0.362170 -1.056078 -0.926111
v -0.362170 -0.667502 -0.911249
v -0.362170 -3.059753 -1.347424
v -0.362170 -2.033771 -0.250753
v -0.362170 -1.056078 -0.926112
v -0.362170 -1.488092 -0.969686
v -0.362170 -1.934103 -1.039002
v -0.362170 -2.363717 -1.129337
v -0.362170 -2.747655 -1.234534
v 0.362170 -0.667502 -0.911249
v 0.362170 0.034776 0.008113
v 0.362170 -0.485739 -0.879922
v 0.362170 -0.316363 -0.788078
v 0.362170 -0.170917 -0.641974
v 0.362170 -0.059312 -0.451568
v 0.362170 0.010846 -0.229835
v 0.362170 0.034776 0.169389
v 0.362170 -1.866967 1.088751
v 0.362170 -0.030024 0.407338
v 0.362170 -0.220009 0.629070
v 0.362170 -0.522232 0.819476
v 0.362170 -0.916096 0.965580
v 0.362170 -1.374760 1.057425
v -0.362170 -1.866967 1.088751
v -0.362170 0.034776 0.169388
v -0.362170 -1.374760 1.057424
v -0.362170 -0.916096 0.965579
v -0.362170 -0.522232 0.819476
v -0.362170 -0.220009 0.629069
v -0.362170 -0.030024 0.407337
v -0.362170 0.034776 0.008113
v -0.362170 -0.667502 -0.911249
v -0.362170 0.010846 -0.229836
v -0.362170 -0.059312 -0.451568
v -0.362170 -0.170917 -0.641974
v -0.362170 -0.316363 -0.788078
v -0.362170 -0.485739 -0.879923
v -0.362170 -3.948068 0.689803
v 0.362170 -3.948068 0.689803
v -0.362170 -3.948068 -0.965327
v 0.362170 -3.948068 -0.965327
v -0.362170 -3.948068 -0.965327
v 0.362170 -3.948068 -0.965327
v -0.362170 -3.948068 0.276020
v 0.362170 -3.948068 0.276021
v -0.362170 -3.948068 0.276020
v 0.362170 -3.948068 0.276021
v -0.362170 -3.948068 -0.137762
v 0.362170 -3.948068 -0.137762
v -0.362170 -3.948068 -0.137762
v 0.362170 -3.948068 -0.137762
v -0.362170 -3.948068 -0.551545
v 0.362170 -3.948068 -0.551545
v -0.362170 -3.948068 -0.137762
v 0.362170 -3.948068 -0.137762
v -0.362170 -3.948068 -0.551545
v 0.362170 -3.948068 -0.551545
v -0.362170 -3.948068 0.276020
v 0.362170 -3.948068 0.276021
v -0.362170 -3.948068 0.689803
v 0.362170 -3.948068 0.689803
v 0.362170 -3.999236 -1.746824
v -0.362170 -3.999236 -1.746825
v -0.362170 -4.035047 -1.697970
v 0.362170 -4.035047 -1.697969
v -0.362170 -3.997968 0.231683
v 0.362170 -3.997968 0.231683
v -0.362170 -3.948068 -0.965327
v 0.362170 -3.948068 -0.965327
v -0.362170 -3.997968 -0.920989
v 0.362170 -3.997968 -0.920989
v -0.362170 -3.997968 -0.093424
v 0.362170 -3.997968 -0.093424
v -0.362170 -4.035047 1.008663
v 0.362170 -4.035047 1.008663
v -0.362170 -4.057880 0.839613
v 0.362170 -4.057880 0.839613
v -0.362170 -4.035047 -0.042840
v 0.362170 -4.035047 -0.042839
v -0.362170 -4.065590 0.896694
v 0.362170 -4.065590 0.896694
v -0.362170 -4.057880 -0.815517
v 0.362170 -4.057880 -0.815517
v -0.362170 -4.057880 -1.528919
v 0.362170 -4.057880 -1.528920
v -0.362170 -4.035047 -0.870405
v 0.362170 -4.035047 -0.870405
v -0.362170 -4.065590 -0.758436
v 0.362170 -4.065590 -0.758436
v -0.362170 -4.035047 0.181098
v 0.362170 -4.035047 0.181098
v -0.362170 -3.816884 -1.284187
v 0.362170 -3.816884 -1.284187
v -0.362170 -3.782447 -1.229300
v 0.362170 -3.782447 -1.229300
v -0.362170 -3.770819 -1.172219
v 0.362170 -3.770819 -1.172218
v -0.362170 -4.057880 -1.643082
v 0.362170 -4.057880 -1.643082
v -0.362170 -4.065590 -1.586001
v 0.362170 -4.065590 -1.586001
v -0.362170 -4.035047 -1.474032
v 0.362170 -4.035047 -1.474032
v -0.362170 -3.997968 -1.423447
v 0.362170 -3.997968 -1.423447
v -0.362170 -4.065590 0.069129
v 0.362170 -4.065590 0.069129
v -0.362170 -4.057880 0.953776
v 0.362170 -4.057880 0.953776
v -0.362170 -4.057880 0.126210
v 0.362170 -4.057880 0.126210
v -0.362170 -4.057880 0.012048
v 0.362170 -4.057880 0.012048
v -0.362170 -3.997968 -0.595882
v 0.362170 -3.997968 -0.595882
v -0.362170 -4.035047 -0.646467
v 0.362170 -4.035047 -0.646467
v -0.362170 -4.057880 -0.701355
v 0.362170 -4.057880 -0.701355
v -0.362170 -3.997968 0.734141
v 0.362170 -3.997968 0.734141
v -0.362170 -3.872807 -1.334772
v 0.362170 -3.872808 -1.334772
v -0.362170 -4.035047 0.784726
v 0.362170 -4.035047 0.784726
v -0.362170 -3.948067 -1.379110
v 0.362170 -3.948068 -1.379110
v -0.362170 -3.948067 -1.379110
v 0.362170 -3.948068 -1.379110
v -0.362170 -3.948068 -0.551545
v 0.362170 -3.948068 -0.551545
v -0.362170 -3.770819 0.482912
v 0.362170 -3.770819 0.482912
v -0.362170 -3.782447 0.425831
v 0.362170 -3.782447 0.425831
v -0.362170 -3.872808 -0.182100
v 0.362170 -3.872808 -0.182100
v -0.362170 -3.782447 0.539993
v 0.362170 -3.782447 0.539993
v -0.362170 -3.816884 -0.232685
v 0.362170 -3.816884 -0.232684
v -0.362170 -3.770819 -0.344653
v 0.362170 -3.770819 -0.344653
v -0.362170 -3.948068 0.689803
v 0.362170 -3.948068 0.689803
v -0.362170 -3.782447 -0.287572
v 0.362170 -3.782447 -0.287572
v -0.362170 -3.782447 -0.401735
v 0.362170 -3.782447 -0.401734
v -0.362170 -3.948067 -1.379110
v 0.362170 -3.948068 -1.379110
v -0.362170 -3.997968 1.059248
v 0.362170 -3.997968 1.059248
v -0.362170 -3.816884 0.594881
v 0.362170 -3.816884 0.594881
v -0.362170 -3.872808 0.645465
v 0.362170 -3.872807 0.645465
v -0.362170 -3.816884 0.370943
v 0.362170 -3.816884 0.370943
v -0.362170 -3.872808 0.320358
v 0.362170 -3.872808 0.320359
v -0.362170 -3.872808 -0.507207
v 0.362170 -3.872808 -0.507207
v -0.362170 -3.816884 -0.456622
v 0.362170 -3.816884 -0.456622
v -0.362170 -3.964764 1.088751
v 0.362170 -3.964764 1.088751
v -0.362170 -3.872808 -1.009665
v 0.362170 -3.872808 -1.009665
v -0.362170 -3.816884 -1.060250
v 0.362170 -3.816884 -1.060250
v -0.362170 -3.782447 -1.115137
v 0.362170 -3.782447 -1.115137
v 0.362170 -0.499201 0.246133
v -0.362170 -0.499201 0.246133
v 0.362170 -0.499201 0.400295
v -0.362170 -0.499201 0.400295
v 0.362170 -0.734352 -0.466905
v -0.362170 -0.734352 -0.466905
v 0.362170 -0.915091 0.073775
v -0.362170 -0.915091 0.073775
v 0.362170 -0.658057 0.121414
v -0.362170 -0.658057 0.121414
v 0.362170 -0.734352 -0.312743
v -0.362170 -0.734352 -0.312743
v 0.362170 -1.172126 0.121414
v -0.362170 -1.172126 0.121414
v -0.362170 -1.330982 0.246133
v 0.362170 -1.330981 0.246133
v 0.362170 -1.172126 0.525015
v -0.362170 -1.172126 0.525015
v 0.362170 -1.330981 0.400295
v -0.362170 -1.330982 0.400295
v -0.362170 -1.407276 -0.188023
v 0.362170 -1.407276 -0.188023
v 0.362170 -1.279781 -0.615254
v -0.362170 -1.150242 -0.639263
v 0.362170 -1.150242 -0.639263
v -0.362170 -0.893208 -0.591624
v 0.362170 -0.893208 -0.591624
v -0.362170 -1.407277 -0.591624
v -0.362170 -1.279783 -0.615254
v 0.362170 -1.407277 -0.591624
v 0.362170 -0.915091 0.572654
v -0.362170 -0.915091 0.572654
v 0.362170 -0.658057 0.525015
v -0.362170 -0.658057 0.525015
v -0.362170 -1.566132 -0.466905
v 0.362170 -1.566132 -0.466905
v 0.362170 -0.893208 -0.188023
v -0.362170 -0.893208 -0.188023
v -0.362170 -0.982833 -0.171412
v 0.362170 -0.929759 -0.181249
v -0.362170 -1.150242 -0.140385
v 0.362170 -1.150242 -0.140385
v -0.362170 -1.566132 -0.312743
v 0.362170 -1.566132 -0.312743
v -0.362170 -1.533253 -0.492718
v 0.362170 -1.533255 -0.492717
vn 0.0000 0.0000 1.0000
vn 0.0000 0.3912 -0.9203
vn 1.0000 0.0000 0.0000
vn 0.0000 0.3401 -0.9404
vn 0.0000 0.2643 -0.9645
vn 0.0000 0.2058 -0.9786
vn 0.0000 0.1536 -0.9881
vn 0.0000 0.1004 -0.9950
vn 0.0000 0.0382 -0.9993
vn 0.0000 1.0000 0.0000
vn 0.0000 0.1698 -0.9855
vn 0.0000 0.4767 -0.8791
vn 0.0000 0.7087 -0.7055
vn 0.0000 0.8627 -0.5057
vn 0.0000 0.9534 -0.3017
vn 0.0000 0.9950 -0.1001
vn -0.0000 0.9649 0.2628
vn -0.0000 0.7594 0.6506
vn -0.0000 0.5330 0.8461
vn -0.0000 0.3478 0.9376
vn -0.0000 0.1963 0.9805
vn -0.0000 0.0635 0.9980
vn 0.0000 -0.6175 -0.7865
vn 0.0000 -0.1822 -0.9833
vn 0.0000 -1.0000 0.0000
vn -0.0000 0.6175 -0.7865
vn 0.0000 -0.1822 0.9833
vn 0.0000 -0.6175 0.7865
vn 0.0000 0.1822 0.9833
vn 0.0000 0.1822 -0.9833
vn 0.0000 0.6175 0.7865
vn 0.0000 -0.6642 0.7475
vn 0.0000 -0.8065 0.5912
vn 0.0000 -0.9233 0.3841
vn 0.0000 -0.9910 0.1338
vn 0.0000 -0.9910 -0.1338
vn 0.0000 -0.9233 -0.3841
vn 0.0000 -0.8065 -0.5912
vn 0.0000 -0.6642 -0.7475
vn 0.0000 -0.5076 -0.8616
vn 0.0000 -0.6708 -0.7416
vn 0.0000 -0.8471 -0.5315
vn 0.0000 -0.9799 -0.1996
vn -0.0000 -0.9799 0.1996
vn -0.0000 -0.8471 0.5315
vn 0.0000 0.6708 -0.7416
vn -0.0000 0.5076 -0.8616
vn -0.0000 -0.6708 0.7416
vn 0.0000 -0.5076 0.8616
vn -0.0000 -0.9910 0.1339
vn -0.0000 -0.9910 -0.1339
usemtl Material
s off
f 19//1 4//1 11//1 41//1
f 3//2 71//2 72//2 12//2
f 2//3 13//3 227//3 217//3 225//3 203//3 223//3 221//3 190//3 196//3 197//3 202//3 200//3 214//3 37//3 36//3 35//3 33//3
f 1//1 27//1 33//1 2//1
f 3//3 6//3 5//3
f 6//3 7//3 5//3
f 7//3 8//3 5//3
f 8//3 9//3 5//3
f 9//3 10//3 5//3
f 10//3 4//3 205//3 212//3 228//3 5//3
f 11//3 211//3 210//3 227//3 13//3 14//3
f 14//3 13//3 15//3
f 15//3 13//3 16//3
f 16//3 13//3 17//3
f 17//3 13//3 18//3
f 18//3 13//3 12//3
f 3//4 12//4 18//4 6//4
f 6//5 18//5 17//5 7//5
f 7//6 17//6 16//6 8//6
f 8//7 16//7 15//7 9//7
f 9//8 15//8 14//8 10//8
f 10//9 14//9 11//9 4//9
f 20//10 40//10 34//10 26//10
f 19//11 41//11 46//11 21//11
f 21//12 46//12 45//12 22//12
f 22//13 45//13 44//13 23//13
f 23//14 44//14 43//14 24//14
f 24//15 43//15 42//15 25//15
f 25//16 42//16 40//16 20//16
f 26//17 34//17 39//17 28//17
f 28//18 39//18 38//18 29//18
f 29//19 38//19 37//19 30//19
f 30//20 37//20 36//20 31//20
f 31//21 36//21 35//21 32//21
f 32//22 35//22 33//22 27//22
f 5//3 228//3 218//3 226//3 204//3 224//3 222//3 189//3 195//3 198//3 201//3 199//3 213//3 30//3 31//3 32//3 27//3 1//3
f 176//3 162//3 84//3 118//3 90//3 86//3 134//3 130//3 48//3 70//3 154//3 166//3 164//3 148//3 142//3 144//3 168//3 170//3 56//3 54//3 68//3 76//3 100//3 120//3 116//3 122//3 88//3 82//3 58//3 60//3 64//3 146//3 150//3 156//3 152//3 158//3 174//3 172//3 140//3 62//3 66//3 124//3 126//3 128//3 98//3 92//3 96//3 80//3 78//3 52//3 50//3 178//3 180//3 182//3 106//3 104//3 102//3 132//3 160//3 136//3 138//3 114//3 112//3 94//3 110//3 108//3 74//3 71//3 3//3 5//3 1//3
f 175//1 176//1 1//1 2//1
f 72//3 12//3 13//3 2//3 175//3 161//3 83//3 117//3 89//3 85//3 133//3 129//3 47//3 69//3 153//3 165//3 163//3 147//3 141//3 143//3 167//3 169//3 55//3 53//3 67//3 75//3 99//3 119//3 115//3 121//3 87//3 81//3 57//3 59//3 63//3 145//3 149//3 155//3 151//3 157//3 173//3 171//3 139//3 61//3 65//3 123//3 125//3 127//3 97//3 91//3 95//3 79//3 77//3 51//3 49//3 177//3 179//3 181//3 105//3 103//3 101//3 131//3 159//3 135//3 137//3 113//3 111//3 93//3 109//3 107//3 73//3
f 186//23 185//23 215//23 216//23
f 216//24 215//24 213//24 214//24
f 202//10 201//10 198//10 197//10
f 184//25 183//25 185//25 186//25
f 200//26 199//26 201//26 202//26
f 220//24 219//24 222//24 224//24 223//24 221//24
f 190//27 189//27 191//27 192//27
f 192//28 191//28 183//28 184//28
f 203//26 204//26 226//26 225//26
f 225//10 226//10 218//10 217//10
f 206//27 207//27 209//27 208//27
f 30//3 213//3 215//3 185//3 183//3 191//3 189//3 222//3 219//3 193//3 187//3 209//3 207//3 205//3 4//3 19//3 21//3 22//3 23//3 24//3 25//3 20//3 26//3 28//3 29//3
f 188//25 187//25 193//25 194//25
f 196//29 195//29 189//29 190//29
f 194//23 193//23 219//23 220//23
f 208//28 209//28 187//28 188//28
f 223//30 224//30 204//30 203//30
f 37//3 214//3 216//3 186//3 184//3 192//3 190//3 221//3 220//3 194//3 188//3 208//3 206//3 211//3 11//3 41//3 46//3 45//3 44//3 43//3 42//3 40//3 34//3 39//3 38//3
f 217//31 218//31 228//31 212//31 210//31 227//31
f 210//29 212//29 205//29 207//29 206//29 211//29
f 197//31 198//31 195//31 196//31
f 214//30 213//30 199//30 200//30
f 175//32 161//32 162//32 176//32
f 83//33 84//33 162//33 161//33
f 118//34 84//34 83//34 117//34
f 89//35 90//35 118//35 117//35
f 85//36 86//36 90//36 89//36
f 133//37 134//37 86//37 85//37
f 129//38 130//38 134//38 133//38
f 47//39 48//39 130//39 129//39
f 165//40 166//40 154//40 153//40
f 163//41 164//41 166//41 165//41
f 147//42 148//42 164//42 163//42
f 141//43 142//43 148//43 147//43
f 144//44 142//44 141//44 143//44
f 167//45 168//45 144//45 143//45
f 169//46 167//46 168//46 170//46
f 55//47 169//47 170//47 56//47
f 75//32 76//32 68//32 67//32
f 99//33 100//33 76//33 75//33
f 119//34 120//34 100//34 99//34
f 115//35 116//35 120//35 119//35
f 121//36 122//36 116//36 115//36
f 87//37 88//37 122//37 121//37
f 81//38 82//38 88//38 87//38
f 57//39 58//39 82//39 81//39
f 146//40 64//40 63//40 145//40
f 149//41 150//41 146//41 145//41
f 155//42 156//42 150//42 149//42
f 151//43 152//43 156//43 155//43
f 158//44 152//44 151//44 157//44
f 173//45 174//45 158//45 157//45
f 171//48 172//48 174//48 173//48
f 139//49 140//49 172//49 171//49
f 123//32 124//32 66//32 65//32
f 125//33 126//33 124//33 123//33
f 127//34 128//34 126//34 125//34
f 97//35 98//35 128//35 127//35
f 91//36 92//36 98//36 97//36
f 96//37 92//37 91//37 95//37
f 79//38 80//38 96//38 95//38
f 77//39 78//39 80//39 79//39
f 177//40 178//40 50//40 49//40
f 179//41 180//41 178//41 177//41
f 181//42 182//42 180//42 179//42
f 105//43 106//43 182//43 181//43
f 104//44 106//44 105//44 103//44
f 101//45 102//45 104//45 103//45
f 131//48 132//48 102//48 101//48
f 159//49 160//49 132//49 131//49
f 113//32 114//32 138//32 137//32
f 111//33 112//33 114//33 113//33
f 93//34 94//34 112//34 111//34
f 110//50 94//50 93//50 109//50
f 107//51 108//51 110//51 109//51
f 73//37 74//37 108//37 107//37
f 71//38 74//38 73//38 72//38
